# File created by Blade
# Date/Time:  Mon Nov 18 18:33:23 2013
# Frame Rate: 100.000 fps
#------------------------------------------------------
:FULLY-SPECIFIED
:DEGREES
132
root 53.921786 -2.023676 50.899619 -2.182660 2.111486 -121.915433
Spine 11.480851 -1.775262 -0.620012
Spine1 2.974456 0.905375 -1.812542
Spine2 0.668569 -2.433827 -2.394957
NeckDummy 0.005161 -0.032575 -0.020076 -1.376257 1.987736 -0.798402
Neck 16.800929 0.412382 25.718617
Head -0.249757 0.337195 0.258629 -35.441492 -3.643603 -0.336917
LeftShoulderDummy -0.066827 -0.025120 0.018345 -1.352478 1.868768 -0.586389
LeftShoulder 7.970098 -4.338550 14.149396
LeftArm 16.619643 47.437504 26.625041
LeftForeArm 88.245376
LeftForeArmRoll -34.201480
LeftHand -9.087072 4.456046 -3.863781
LeftHandThumb1 16.297679 12.829905
LeftHandIndex1 15.443756 43.126443
LeftHandPinky1 14.460909 47.929074
RightShoulderDummy -0.048105 0.002650 0.074334 -1.396654 -1.981213 0.771864
RightShoulder 5.384847 5.427636 17.634123
RightArm -42.173208 70.429286 -6.905540
RightForeArm 112.832895
RightForeArmRoll 5.025522
RightHand -17.833757 -16.255397 11.442903
RightHandThumb1 -0.921661 12.937261
RightHandIndex1 13.504164 58.632016
RightHandPinky1 18.679419 67.735430
LeftUpLeg 4.544890 19.665348 -29.073535
LeftLeg 45.175354
LeftFoot 0.572531 -1.044733 -0.645996 -14.493482 9.162701 -7.458082
LeftToeBase -1.331252
RightUpLeg 14.702797 11.567558 -21.463580
RightLeg 56.623913
RightFoot -0.377859 0.435506 0.199179 0.524921 7.371605 -29.903108
RightToeBase -0.978301
133
root 53.896204 -2.024235 50.906064 -2.209449 2.077274 -121.942878
Spine 11.483791 -1.760117 -0.641568
Spine1 2.986756 0.908440 -1.853585
Spine2 0.700554 -2.489734 -2.296478
NeckDummy 0.004880 -0.032326 -0.020974 -1.377011 1.920949 -0.807139
Neck 16.827667 0.463346 25.764238
Head -0.249920 0.336233 0.256334 -35.400897 -3.630640 -0.315146
LeftShoulderDummy -0.067185 -0.024979 0.019000 -1.352894 1.801893 -0.596217
LeftShoulder 8.019089 -4.310194 14.163871
LeftArm 16.911434 47.459537 26.709816
LeftForeArm 88.249570
LeftForeArmRoll -34.284194
LeftHand -9.073398 4.479511 -3.963472
LeftHandThumb1 16.210119 12.867968
LeftHandIndex1 15.508875 43.127129
LeftHandPinky1 14.539434 47.970736
RightShoulderDummy -0.048656 0.003008 0.072048 -1.397696 -1.914440 0.781426
RightShoulder 5.304503 5.390012 17.585888
RightArm -42.218901 70.459548 -6.851865
RightForeArm 112.790747
RightForeArmRoll 4.888987
RightHand -17.840398 -16.805218 11.439635
RightHandThumb1 -0.919895 13.274191
RightHandIndex1 13.731391 59.282871
RightHandPinky1 18.752723 68.305553
LeftUpLeg 4.561925 19.698947 -29.093355
LeftLeg 45.291044
LeftFoot 0.564922 -1.047221 -0.641520 -14.337529 9.207354 -7.423938
LeftToeBase -1.605255
RightUpLeg 14.825507 11.614313 -21.374322
RightLeg 56.592571
RightFoot -0.387126 0.430001 0.194719 0.352217 7.255892 -29.913088
RightToeBase -0.920945
134
root 53.874376 -2.025289 50.912518 -2.190424 2.010066 -121.982544
Spine 11.479152 -1.759661 -0.609917
Spine1 2.980947 0.924783 -1.787929
Spine2 0.670660 -2.430651 -2.349717
NeckDummy 0.004882 -0.034734 -0.020002 -1.368872 1.953309 -0.791362
Neck 16.913988 0.460937 25.707970
Head -0.252251 0.336592 0.251601 -35.277713 -3.674417 -0.339463
LeftShoulderDummy -0.067576 -0.027562 0.019019 -1.344503 1.832950 -0.576426
LeftShoulder 7.917466 -4.312932 14.116391
LeftArm 17.020355 47.623451 26.704207
LeftForeArm 88.222138
LeftForeArmRoll -34.351580
LeftHand -9.142554 4.452741 -3.880838
LeftHandThumb1 15.865991 12.796785
LeftHandIndex1 15.333332 43.319682
LeftHandPinky1 14.435056 48.272904
RightShoulderDummy -0.048096 0.000008 0.073336 -1.389253 -1.946471 0.765818
RightShoulder 5.289325 5.465163 17.612391
RightArm -42.146810 70.449215 -6.743591
RightForeArm 112.817492
RightForeArmRoll 4.807700
RightHand -17.803284 -16.586677 11.297561
RightHandThumb1 -1.260626 13.207577
RightHandIndex1 13.571631 58.332202
RightHandPinky1 18.764192 67.915707
LeftUpLeg 4.557342 19.766632 -29.156253
LeftLeg 45.425754
LeftFoot 0.544245 -1.054493 -0.646643 -13.659729 9.079373 -7.363894
LeftToeBase -2.182681
RightUpLeg 14.932073 11.608307 -21.351238
RightLeg 56.568712
RightFoot -0.395806 0.427550 0.195580 0.335737 7.144648 -29.862116
RightToeBase -0.951664
135
root 53.850865 -2.023463 50.923226 -2.190943 1.984385 -122.041343
Spine 11.468942 -1.751076 -0.613755
Spine1 2.978393 0.918660 -1.790252
Spine2 0.692894 -2.453651 -2.292094
NeckDummy 0.004678 -0.035774 -0.020718 -1.372940 1.915054 -0.795508
Neck 16.969673 0.506658 25.765748
Head -0.252715 0.336544 0.249729 -35.268014 -3.646884 -0.350459
LeftShoulderDummy -0.067575 -0.028780 0.019101 -1.348770 1.795767 -0.582295
LeftShoulder 7.855457 -4.263547 14.143859
LeftArm 17.137395 47.730212 26.719003
LeftForeArm 88.241551
LeftForeArmRoll -34.375290
LeftHand -9.096383 4.558796 -3.999141
LeftHandThumb1 16.259817 12.672584
LeftHandIndex1 15.227157 43.175165
LeftHandPinky1 14.363718 48.147235
RightShoulderDummy -0.048164 -0.001134 0.072012 -1.393271 -1.908638 0.771095
RightShoulder 5.296109 5.429217 17.580087
RightArm -41.922443 70.445406 -6.487901
RightForeArm 112.770459
RightForeArmRoll 4.764554
RightHand -17.801552 -16.535569 11.343878
RightHandThumb1 -1.309890 13.090288
RightHandIndex1 13.582967 58.189759
RightHandPinky1 18.886479 67.842283
LeftUpLeg 4.598494 19.795286 -29.182871
LeftLeg 45.549127
LeftFoot 0.539687 -1.059219 -0.648705 -13.503515 9.082490 -7.428601
LeftToeBase -2.217150
RightUpLeg 14.976159 11.658469 -21.334125
RightLeg 56.578221
RightFoot -0.393121 0.433387 0.191890 0.312568 7.020166 -29.852607
RightToeBase -0.943237
136
root 53.821544 -2.025896 50.937307 -2.217235 1.946067 -122.020571
Spine 11.496502 -1.741676 -0.595917
Spine1 2.988315 0.930255 -1.757595
Spine2 0.659758 -2.396131 -2.347480
NeckDummy 0.004876 -0.037464 -0.019817 -1.370035 1.950429 -0.783977
Neck 17.058165 0.506190 25.714599
Head -0.249087 0.339729 0.248722 -35.218817 -3.636866 -0.326701
LeftShoulderDummy -0.066847 -0.030403 0.019420 -1.344980 1.830789 -0.570666
LeftShoulder 7.829525 -4.241760 14.092504
LeftArm 17.311634 47.883162 26.810892
LeftForeArm 88.230233
LeftForeArmRoll -34.569168
LeftHand -9.109358 4.570548 -3.950846
LeftHandThumb1 15.832694 12.599355
LeftHandIndex1 15.196593 43.223956
LeftHandPinky1 14.288541 48.356466
RightShoulderDummy -0.046758 -0.003480 0.073586 -1.389856 -1.944754 0.761884
RightShoulder 5.221819 5.474387 17.553590
RightArm -42.037730 70.387318 -6.653164
RightForeArm 112.817208
RightForeArmRoll 4.913382
RightHand -17.705828 -16.589990 11.625517
RightHandThumb1 -0.727344 12.965054
RightHandIndex1 13.207304 59.015791
RightHandPinky1 18.021762 67.559364
LeftUpLeg 4.588653 19.777711 -29.217376
LeftLeg 45.682988
LeftFoot 0.548710 -1.054477 -0.646277 -13.800804 9.099477 -7.633535
LeftToeBase -1.811787
RightUpLeg 15.133217 11.763278 -21.273709
RightLeg 56.588681
RightFoot -0.389975 0.434220 0.198634 0.350568 6.873678 -29.751539
RightToeBase -1.057799
